<?xml version="1.0" encoding="utf-8"?>
<!-- Generator: Adobe Illustrator 23.0.3, SVG Export Plug-In . SVG Version: 6.00 Build 0)  -->
<svg version="1.1" id="圖層_1" xmlns="http://www.w3.org/2000/svg" xmlns:xlink="http://www.w3.org/1999/xlink" x="0px" y="0px"
	 viewBox="120 120 260 260" style="enable-background:new 0 0 500 500;" xml:space="preserve">
<g>
	<g transform="translate(208.062032, 269.377336)">
	</g>
</g>
<g>
	<path d="M205.3,233h-1.8c-0.8,0-1.3-0.6-1.4-1.3c-0.3-2.4-2.9-4.7-5.4-4.7c-1.3,0-2.3,0.9-3.6,2c-1.7,1.5-3.9,3.4-7.6,3.4
		c-5,0-9.2-4-9.5-9.1c0-0.9,0.6-1.4,1.5-1.4h1.7c0.8,0,1.4,0.6,1.4,1.4c0.3,2.2,2.9,4.5,5.4,4.5c1.6,0,2.7-1,4.1-2.2
		c1.7-1.5,3.7-3.2,7.1-3.2c5.1,0,9.4,4.1,9.7,9.2C206.8,232.5,206.2,233,205.3,233z M205.3,223.5h-1.8c-0.8,0-1.3-0.6-1.4-1.3
		c-0.3-2.4-2.9-4.7-5.4-4.7c-1.3,0-2.3,0.9-3.6,2c-1.7,1.5-3.9,3.4-7.6,3.4c-5,0-9.2-4-9.5-9.1c0-0.9,0.6-1.4,1.5-1.4h1.7
		c0.8,0,1.4,0.6,1.4,1.4c0.3,2.2,2.9,4.5,5.4,4.5c1.6,0,2.7-1,4.1-2.2c1.7-1.5,3.7-3.2,7.1-3.2c5.1,0,9.4,4.1,9.7,9.2
		C206.8,223,206.2,223.5,205.3,223.5z"/>
	<path d="M191.3,266.1c-8.3,0-15.1-6.8-15.1-15.2c0-8.3,6.8-15.1,15.1-15.1c8.4,0,15.2,6.8,15.2,15.2
		C206.5,259.3,199.7,266.1,191.3,266.1z M191.4,240.5c-5.7,0-10.4,4.7-10.4,10.4c0,5.7,4.7,10.4,10.4,10.4c5.7,0,10.4-4.7,10.4-10.4
		C201.8,245.2,197.1,240.5,191.4,240.5z M191.3,254.3c-1.9,0-3.4-1.5-3.4-3.4c0-1.9,1.5-3.4,3.4-3.4c1.9,0,3.4,1.5,3.4,3.4
		C194.7,252.8,193.2,254.3,191.3,254.3z"/>
	<g>
		<path d="M204.8,294.1h-26.8c-0.7,0-1.4-0.5-1.4-1.5v-22.5c0-0.8,0.5-1.3,1.2-1.4l26.9,0c0.8,0,1.4,0.6,1.4,1.4v2.6
			c0,0.5-0.2,0.9-0.6,1.2L185,289.4l20.1,0c0.6,0.2,1,0.7,1,1.3v1.9C206.1,293.5,205.5,294.1,204.8,294.1z M181.3,273.6v12.7
			l17-12.7H181.3z"/>
	</g>
	<g>
		<path d="M204.8,303.7h-26.8c-0.8,0-1.4-0.6-1.4-1.4v-2c0-0.8,0.5-1.4,1.4-1.4h26.8c0.8,0,1.4,0.6,1.4,1.4v2
			C206.1,303.1,205.5,303.7,204.8,303.7z"/>
	</g>
	<path d="M202.4,332.2c-0.2,0-0.4,0-0.6-0.2l-1.8-1.1c-0.3-0.3-0.6-0.6-0.6-1c0-0.3,0.1-0.7,0.4-1c1.2-1.7,1.8-3.6,2-5.8
		c0-6.1-4.6-10.9-10.5-10.9c-5.8,0-10.3,4.5-10.3,10.3c0,2,0.6,3.9,1.7,5.7l0.5,0.8c0.2,0.3,0.3,0.6,0.3,0.8c0,0.5-0.3,0.8-0.6,1
		l-0.1,0.1l-1.9,1.1c-0.3,0.1-0.5,0.1-0.7,0.1c-0.5,0-0.9-0.3-1.2-0.8c-1.9-2.6-2.8-5.6-2.8-8.8c0-8.3,6.8-15.1,15.1-15.1
		c8.4,0,15.2,6.8,15.2,15.2c0,3.2-1,6.2-2.9,8.9l0,0.1C203.3,332,202.8,332.2,202.4,332.2z M202.3,330.7
		C202.3,330.7,202.3,330.7,202.3,330.7C202.3,330.7,202.3,330.7,202.3,330.7z M191.3,326.2c-1.9,0-3.4-1.5-3.4-3.4
		c0-1.9,1.5-3.4,3.4-3.4c1.9,0,3.4,1.5,3.4,3.4C194.7,324.6,193.2,326.2,191.3,326.2z"/>
	<path d="M181.5,359.6c-1.6,0-3-0.7-3.9-1.9c-0.1-0.1-0.2-0.3-0.2-0.4c0-0.2,0.2-0.4,0.2-0.4l0.5-0.4c0.1-0.1,0.3-0.1,0.4-0.1
		c0.2,0,0.4,0.2,0.5,0.3c0.8,0.8,2,1.2,2.6,1.2c1,0,2.4-0.5,2.4-1.7c0-0.9-1.2-1.3-2.6-1.6c-1.9-0.5-3.7-1.2-3.7-3
		c0-1.9,1.5-3.2,3.9-3.2c1.2,0,2.5,0.6,3.4,1.4c0.2,0.2,0.3,0.4,0.3,0.6c0,0.1-0.1,0.3-0.2,0.4l-0.4,0.4c-0.1,0.1-0.2,0.2-0.4,0.2
		c-0.2,0-0.4-0.2-0.4-0.2c-0.3-0.3-1.2-1.1-2.4-1.1c-1.4,0-2,0.7-2,1.4c0,0.7,1.1,1.1,2.3,1.4l0.2,0c1.7,0.5,3.7,1,3.7,3.1
		C185.6,358.1,183.9,359.6,181.5,359.6z"/>
	<path d="M198.7,359.4h-6.8c-0.3,0-0.6-0.2-0.6-0.5v-9.8c0-0.3,0.2-0.6,0.6-0.6h6.7c0.3,0,0.6,0.2,0.6,0.6v0.6
		c0,0.3-0.2,0.6-0.6,0.6h-5.6v2.6h4.4c0.3,0,0.6,0.2,0.6,0.6v0.6c0,0.3-0.2,0.6-0.6,0.6h-4.4v3.1h5.6c0.4,0,0.6,0.2,0.6,0.6v0.6
		C199.3,359.2,199.1,359.4,198.7,359.4z"/>
	<path d="M213.7,359.4H213c-0.2,0-0.3-0.1-0.5-0.2l-5.9-7.8v7.5c0,0.3-0.2,0.6-0.6,0.6h-0.6c-0.3,0-0.6-0.2-0.6-0.6v-9.8
		c0-0.3,0.2-0.6,0.6-0.6h0.8c0.2,0,0.4,0.1,0.5,0.2l5.8,7.6V349c0-0.3,0.3-0.5,0.6-0.5h0.6c0.3,0,0.6,0.3,0.6,0.6v9.8
		C214.3,359.2,214,359.4,213.7,359.4z"/>
	<path d="M224.2,359.6c-1.6,0-3-0.7-3.9-1.9c-0.1-0.1-0.2-0.3-0.2-0.4c0-0.2,0.2-0.4,0.2-0.4l0.5-0.4c0.1-0.1,0.3-0.1,0.4-0.1
		c0.2,0,0.4,0.2,0.5,0.3c0.8,0.8,2,1.2,2.6,1.2c1,0,2.4-0.5,2.4-1.7c0-0.9-1.2-1.3-2.6-1.6c-1.9-0.5-3.7-1.2-3.7-3
		c0-1.9,1.5-3.2,3.9-3.2c1.2,0,2.5,0.6,3.4,1.4c0.2,0.2,0.3,0.4,0.3,0.6c0,0.1-0.1,0.3-0.2,0.4l-0.4,0.4c-0.1,0.1-0.2,0.2-0.4,0.2
		c-0.2,0-0.4-0.2-0.4-0.2c-0.3-0.3-1.2-1.1-2.4-1.1c-1.4,0-2,0.7-2,1.4c0,0.7,1.1,1.1,2.3,1.4l0.2,0c1.7,0.5,3.7,1,3.7,3.1
		C228.3,358.1,226.6,359.6,224.2,359.6z"/>
	<path d="M239.1,359.6c-3.1,0-5.6-2.5-5.6-5.6c0-3.1,2.5-5.6,5.6-5.6c3.1,0,5.6,2.5,5.6,5.6C244.8,357.1,242.2,359.6,239.1,359.6z
		 M239.2,350.1c-2.1,0-3.9,1.7-3.9,3.9c0,2.2,1.7,3.9,3.9,3.9c2.1,0,3.9-1.8,3.9-3.9C243,351.8,241.3,350.1,239.2,350.1z"/>
	<path d="M258.2,359.4h-0.8c-0.4,0-0.5-0.3-0.6-0.4l-1.6-3.4c-0.1,0-0.3,0-0.7,0h-2.2v3.3c0,0.3-0.2,0.6-0.6,0.6h-0.6
		c-0.3,0-0.6-0.2-0.6-0.6v-9.8c0-0.4,0.2-0.6,0.6-0.6h4.1c2,0,3.5,1.6,3.5,3.6c0,1.3-0.7,2.5-1.8,3.1l1.8,3.7c0,0,0,0.1,0,0.1
		C258.7,359.2,258.6,359.4,258.2,359.4z M252.3,353.9h2.9c1,0,1.8-0.8,1.8-1.9c0-1-0.8-1.9-1.8-1.9h-2.9V353.9z"/>
	<path d="M268.5,359.4h-0.6c-0.3,0-0.5-0.2-0.5-0.6v-4.1l-3.4-5.5c-0.1-0.1-0.1-0.2-0.1-0.3c0-0.2,0.1-0.4,0.5-0.4h0.9
		c0.3,0,0.4,0.1,0.6,0.4l2.4,4l2.4-4c0.1-0.2,0.3-0.3,0.5-0.4l1,0c0.3,0,0.4,0.2,0.4,0.4c0,0.1,0,0.2-0.1,0.3c-0.6,1-1.2,2-1.8,3
		c-0.5,0.8-1,1.6-1.5,2.5v4.2C269.1,359.2,268.9,359.4,268.5,359.4z"/>
	<path d="M308.2,359.4h-0.6c-0.3,0-0.5-0.2-0.6-0.4l-0.7-1.8h-4.8l-0.7,1.8c-0.1,0.3-0.3,0.4-0.6,0.4h-0.6c-0.5,0-0.5-0.4-0.5-0.5
		c0-0.1,0-0.2,0-0.3c2.9-6.9,3.7-8.9,4-9.5c0-0.1,0.1-0.2,0.1-0.2l0-0.1c0.1-0.1,0.2-0.4,0.6-0.4h0.4c0.4,0,0.5,0.3,0.6,0.4l4,9.8
		c0,0.1,0.1,0.2,0.1,0.3C308.8,359.2,308.7,359.4,308.2,359.4z M302.2,355.5h3.4l-1.7-4.2L302.2,355.5z"/>
	<g>
		<path d="M319.6,359.4H315c-0.3,0-0.6-0.2-0.6-0.6v-9.8c0-0.4,0.2-0.6,0.6-0.6h4.1c1.7,0,3.1,1.3,3.1,3c0,0.8-0.3,1.5-0.8,2.1
			c0.8,0.6,1.3,1.6,1.3,2.6C322.7,358,321.3,359.4,319.6,359.4z M316.1,357.7h3.5c0.8,0,1.4-0.7,1.4-1.6c0-0.8-0.7-1.5-1.4-1.5h-3.5
			V357.7z M316.1,352.9h3c0.8,0,1.3-0.6,1.3-1.4c0-0.8-0.5-1.3-1.3-1.3h-3V352.9z"/>
	</g>
	<path d="M266,334c-5,0-10-0.2-14.4-0.8c-8.5-1.2-14.4-3.8-17.7-8c-2.8-3.6-4.6-9.8-5.3-18.3c-0.5-7.3-0.3-15.7-0.1-23.1
		c0.1-3.5,0.2-6.8,0.2-9.9l0-0.7c0-10.7,0.2-43.3,3.8-65.4c1-6.4,2.3-11.5,3.8-15.1c0.5-1.3,1.1-2.4,1.7-3.4c-0.5-0.4-1-0.9-1.5-1.5
		c-1.8-2.2-3.3-5.8-4-10c-1.2-6.8-0.9-17.3,3.5-26.5c3.3-7,10.1-15.4,23.4-15.4c0.5,0,1,0,1.5,0c5.5,0,10.4,0,14.7-0.1
		c9.8-0.1,16.8-0.1,22.3,0.3c8.7,0.6,13.6,2.3,18.5,6.5c4.4,3.8,7.1,9.7,8.3,18.3c1.1,7.9,0.9,17.4,0.8,27.5
		c-0.1,4-0.1,8.1-0.1,12.2c0,7.3,0,11.3,0.1,19.4l0.1,10c0,1.5-0.1,4.8-0.2,6.5c-0.1,1.5-0.8,2.8-2.1,3.7c-1.3,0.9-3.3,1.6-5.8,2
		c-5.6,0.8-14.8,0.4-24.5,0c-4.8-0.2-9.7-0.4-14.5-0.5c-1.4,0-2.6-0.7-3.6-1.9c-1-1.2-1.7-3.1-2-5.3c-0.4-4.3,1-10.8,6.4-14.9
		c3.8-2.9,8.9-4,15.1-3.3c5.3,0.6,9.1,2.2,11.7,4.9c2,2.2,3.1,5,3.5,8.7c0.1,1.5,0.1,2.9,0.1,4.3c0,1.2,0,2.3,0.1,3.3
		c2.9,0,5.2-0.2,7.1-0.4c1.6-0.2,2.6-0.5,3.2-0.9c0.1-0.1,0.2-0.1,0.2-0.1c0.1-1.6,0.1-4.7,0.1-6.1c0-5.2-0.1-9.2-0.1-12.5
		c-0.1-6.5-0.1-10.5-0.1-17c0-4.2,0.1-8.3,0.2-12.3c0.2-9.8,0.4-19.1-0.7-26.7c-1.1-7.4-3.1-12.2-6.5-15.1c-3.9-3.4-8-4.8-15.5-5.3
		c-5.3-0.4-12.2-0.3-21.8-0.3c-4.8,0-10.2,0.1-16.4,0.1c0,0,0,0-0.1,0c-10.6,0-16,6.8-18.7,12.5c-3.8,8.1-4.1,17.4-3,23.4
		c0.5,2.8,1.3,5.2,2.3,6.8c0.5,0.8,1,1.4,1.5,1.6c1.1-1.3,1.7-2.5,2.4-4.2l0.1-0.2c0.9-2.2,1.8-4.5,4.1-6.8c3.6-3.6,10.4-5.2,16.5-4
		c7.3,1.5,12.1,6.2,13.2,13c0.2,1.2,0.4,2.3,0.5,3.1c0.2,1.5,0.3,2,0.3,2.2c0,0.6-0.2,1.1-0.6,1.6c-0.5,0.6-1.2,0.9-2,0.9l-7.1,0
		c-9.3,0-9.3,0-24.7-0.3l-0.8,0c-0.7,0.9-1.4,2.1-2.1,3.8c-1.3,3.3-2.5,7.9-3.5,14c-3.6,21.8-3.7,54-3.7,64.6l0,0.8
		c0,3-0.1,6.4-0.2,9.9c-0.2,7.3-0.5,15.5,0.1,22.6c0.6,7.7,1.9,12.6,4.2,15.5c2.4,3.1,7,5,14.3,6c8.1,1.1,17.9,0.8,26.6,0.5
		c2.5-0.1,5-0.2,7.3-0.2c1,0,2.5,0,4.3,0.1c4.6,0.2,11.5,0.5,17.1-0.4c2.6-0.4,4.5-1,5.9-1.8c1.2-0.7,1.8-1.6,2-2.6
		c1.7-14.2,2.4-24.5,2-30.6c-0.1-1.5-0.2-2.6-0.4-3.4c-0.1-0.3-0.2-1-0.4-1.2c-1.4-1.6-3.8-3-7.6-4.1c-3.5-1.1-7.5-1.8-11.4-2.5
		c-2.2-0.4-4.2-0.8-6.2-1.2c-4.7-1-7.8-2.2-9.8-3.8c-2-1.6-3-3.5-3-5.9l0-0.1c0.1-2,2.6-10.1,13.2-14.2c6.9-2.7,13.3-2.7,19.1,0
		c7.9,3.6,12,11.1,12.8,13.4c0.3,0.9,0.3,1.5,0.3,1.7c-0.1,0.7-0.4,1.3-0.9,1.7c-0.5,0.4-1,0.6-1.7,0.6c-6.2,0-13.4-0.1-20.3-0.2
		c-5-0.1-10.2-0.2-15-0.2c1.9,0.9,4.4,1.5,6.4,2c1.9,0.4,4,0.8,6.2,1.2c4,0.7,8.2,1.5,11.8,2.6c4.7,1.4,7.9,3.3,10,5.7
		c1.1,1.3,1.8,4,2.1,7.6c0.5,8-0.9,21.5-2.1,31.5c-0.4,3.7-3.2,6.5-8,8c-6.4,2-15.7,1.6-21.9,1.3c-1.8-0.1-3.3-0.1-4.3-0.1
		c-2.4,0-4.9,0.1-7.4,0.2C274.8,333.9,270.4,334,266,334z M284.9,268.5c5.3,0,11.2,0.1,16.8,0.2c5.3,0.1,10.7,0.2,15.7,0.2
		c-2.5-3.7-10.2-12.5-23.7-7.4C288.7,263.5,286.2,266.4,284.9,268.5z M278.9,236.6c4.7,0.1,9.5,0.3,14.1,0.5c4.1,0.2,8,0.4,11.6,0.5
		c-0.1-1-0.1-2-0.1-3.2c0-0.5,0-1,0-1.6c0-2.5-0.2-5.2-1.6-7.2c-1.5-2.2-4.5-3.6-9-4.1c-4.8-0.5-8.7,0.2-11.5,2.3
		c-3.7,2.8-4.6,7.2-4.3,10.2c0.1,1,0.3,1.8,0.7,2.4L278.9,236.6C278.9,236.5,278.9,236.6,278.9,236.6z M247.5,185.8
		c12.5,0.3,12.8,0.3,22.2,0.2l3.3,0c-0.1-0.6-0.2-1.2-0.3-1.9c-1-6.5-6.7-8.3-9.1-8.8c-4.6-0.9-9.4,0.1-11.9,2.6
		c-1.6,1.6-2.2,3.2-2.9,5l-0.1,0.3C248.3,184.1,248,184.9,247.5,185.8z"/>
	<path d="M293.7,359.4h-6c-0.3,0-0.6-0.2-0.6-0.6v-9.8c0-0.3,0.2-0.6,0.6-0.6h0.6c0.3,0,0.6,0.2,0.6,0.6v8.7h4.8
		c0.3,0,0.6,0.2,0.6,0.6v0.6C294.3,359.2,294.1,359.4,293.7,359.4z"/>
</g>
</svg>
